<svg width="1200" height="1200" viewBox="0 0 1200 1200" fill="none" xmlns="http://www.w3.org/2000/svg">
  <title>[L]² Logo</title>
  <rect width="1200" height="1200" fill="transparent"/>
  <g fill="#FFFFFF">
    <!-- Left bracket -->
    <rect x="330" y="430" width="70" height="340" rx="0"/>
    <rect x="330" y="430" width="120" height="60" rx="0"/>
    <rect x="330" y="710" width="120" height="60" rx="0"/>

    <!-- L letter -->
    <rect x="515" y="480" width="70" height="230" rx="0"/>
    <rect x="515" y="650" width="165" height="60" rx="0"/>

    <!-- Right bracket -->
    <rect x="760" y="430" width="70" height="340" rx="0"/>
    <rect x="710" y="430" width="120" height="60" rx="0"/>
    <rect x="710" y="710" width="120" height="60" rx="0"/>

    <!-- Superscript 2 -->
    <path d="M864 478C864 429 899 397 953 397C1003 397 1037 425 1037 468C1037 500 1021 523 986 547L936 582H1041V636H859V590L946 529C973 510 982 499 982 477C982 458 970 446 950 446C929 446 916 459 916 482V489H864V478Z"/>
  </g>
</svg>
