<?xml version="1.0" standalone="no"?>
<!DOCTYPE svg PUBLIC "-//W3C//DTD SVG 20010904//EN"
 "http://www.w3.org/TR/2001/REC-SVG-20010904/DTD/svg10.dtd">
<svg version="1.0" xmlns="http://www.w3.org/2000/svg"
 width="488.000000pt" height="512.000000pt" viewBox="0 0 488.000000 512.000000"
 preserveAspectRatio="xMidYMid meet">

<g transform="translate(0.000000,512.000000) scale(0.100000,-0.100000)"
fill="#000000" stroke="none">
<path d="M3058 2966 c-61 -16 -124 -61 -156 -109 -30 -46 -40 -130 -23 -195
l12 -42 154 0 155 0 -39 58 c-21 31 -45 76 -51 99 -11 37 -10 46 7 79 30 58
80 79 183 78 99 -1 178 -21 300 -73 118 -51 240 -134 323 -219 75 -78 97 -120
97 -186 0 -36 -6 -50 -30 -75 -46 -45 -115 -56 -232 -36 -51 9 -103 18 -115
22 -23 5 -23 4 -23 -91 0 -83 3 -98 18 -103 30 -12 265 -9 308 4 99 31 146 86
152 179 4 60 1 72 -33 140 -101 205 -402 404 -710 469 -85 18 -233 18 -297 1z"/>
<path d="M3251 2889 l-25 -10 37 -25 c35 -23 39 -24 59 -9 14 9 44 15 80 15
43 0 58 4 58 14 0 7 -10 16 -22 20 -35 9 -160 6 -187 -5z"/>
<path d="M3495 2869 c-4 -5 4 -13 17 -18 142 -56 148 -58 148 -43 0 18 -156
76 -165 61z"/>
<path d="M3184 2825 c-3 -14 -3 -36 0 -50 6 -22 11 -25 56 -25 45 0 50 2 50
23 -1 14 -15 32 -41 50 -48 33 -57 34 -65 2z"/>
<path d="M3690 2780 c0 -5 10 -15 23 -21 12 -6 41 -27 64 -45 41 -34 63 -42
63 -25 0 16 -118 101 -140 101 -5 0 -10 -4 -10 -10z"/>
<path d="M3220 2704 c0 -3 12 -23 28 -45 26 -36 30 -39 80 -39 l53 0 -37 45
c-33 41 -40 45 -80 45 -24 0 -44 -3 -44 -6z"/>
<path d="M3862 2662 c-10 -7 -8 -19 12 -57 15 -26 26 -55 26 -64 0 -9 16 -26
35 -39 l35 -22 0 22 c0 52 -83 176 -108 160z"/>
<path d="M2380 2614 c-11 -26 -20 -50 -20 -55 0 -17 27 -9 50 16 19 21 33 25
77 25 36 0 53 -4 53 -13 0 -26 -69 -278 -80 -291 -6 -8 -22 -17 -36 -20 -14
-4 -24 -12 -21 -19 5 -17 189 -17 194 0 3 7 -7 17 -21 23 -14 5 -26 15 -26 23
0 17 60 279 66 289 3 5 32 8 65 8 56 0 59 -1 59 -25 0 -39 27 -30 50 17 11 23
20 44 20 47 0 3 -84 5 -186 3 -125 -3 -190 0 -197 7 -18 18 -25 13 -47 -35z"/>
<path d="M944 2639 c-49 -14 -94 -71 -94 -119 0 -33 6 -45 36 -72 107 -96 108
-98 74 -141 -40 -50 -119 -42 -139 15 -14 40 -35 31 -39 -17 -4 -51 15 -65 92
-65 103 0 180 57 178 131 -1 37 -16 58 -80 108 -58 47 -66 74 -29 109 34 32
72 38 94 14 10 -10 23 -27 29 -37 15 -27 34 -10 34 31 0 28 -5 36 -26 44 -31
12 -88 12 -130 -1z"/>
<path d="M1165 2631 c-3 -6 5 -15 17 -22 13 -6 24 -13 26 -14 5 -5 -69 -290
-79 -301 -5 -6 -23 -14 -40 -18 -18 -3 -29 -11 -27 -18 3 -10 44 -14 149 -16
79 -1 153 0 164 2 21 6 55 57 55 82 0 20 -8 18 -47 -16 -30 -27 -41 -30 -98
-30 -63 0 -65 1 -65 26 0 33 20 113 31 119 4 3 26 3 48 -1 28 -4 42 -13 47
-26 10 -31 27 -15 41 38 7 27 13 52 13 57 0 13 -21 7 -47 -13 -14 -11 -41 -20
-59 -20 -39 0 -41 7 -21 85 l13 50 60 0 c54 0 59 -2 62 -23 5 -36 35 -23 43
18 4 19 5 38 3 42 -7 11 -282 10 -289 -1z"/>
<path d="M1515 2629 c-8 -12 -9 -11 28 -27 15 -6 27 -19 27 -28 0 -17 -54
-212 -71 -256 -7 -16 -23 -31 -41 -37 -50 -18 -29 -36 46 -39 81 -4 104 9 67
37 l-24 19 27 116 c15 65 32 116 36 114 9 -3 147 -188 186 -250 37 -58 59 -51
73 25 7 34 26 113 43 176 30 108 32 114 65 127 19 8 31 19 28 24 -9 15 -152
13 -161 -2 -4 -6 -3 -13 3 -15 6 -2 18 -9 27 -16 16 -12 16 -19 -4 -112 -12
-55 -25 -104 -30 -108 -7 -8 -101 107 -177 217 -32 45 -34 46 -87 46 -30 0
-58 -5 -61 -11z"/>
<path d="M2040 2626 c0 -8 9 -18 20 -21 26 -8 26 -14 -11 -157 -36 -144 -42
-157 -80 -170 -16 -5 -29 -16 -29 -23 0 -11 32 -14 160 -14 l161 1 24 39 c42
66 27 80 -32 29 -30 -27 -41 -30 -98 -30 -74 0 -74 0 -51 95 10 45 14 50 39
49 68 -2 77 -5 77 -18 0 -23 18 -28 28 -9 17 33 25 103 11 103 -6 0 -17 -7
-24 -16 -6 -9 -32 -18 -60 -21 l-48 -6 7 33 c3 19 11 51 17 72 l10 38 55 0
c49 0 55 -3 64 -25 5 -14 14 -25 20 -25 12 0 30 42 30 71 0 18 -8 19 -145 19
-119 0 -145 -3 -145 -14z"/>
<path d="M3622 2468 c3 -29 7 -33 53 -45 28 -7 53 -12 56 -10 3 1 2 16 -3 33
-7 27 -15 33 -52 43 -60 15 -58 15 -54 -21z"/>
<path d="M3857 2489 c-10 -6 -38 -14 -61 -17 l-43 -7 14 -32 c12 -31 16 -33
61 -33 46 0 113 25 119 45 1 6 -13 20 -32 33 -40 25 -35 24 -58 11z"/>
<path d="M2954 2391 c-56 -34 -64 -104 -14 -131 28 -15 86 -12 104 6 23 23 20
25 -12 7 -54 -31 -105 8 -86 64 20 54 91 84 112 47 6 -11 11 -13 16 -5 22 34
-68 44 -120 12z"/>
<path d="M3133 2390 c-59 -35 -69 -86 -25 -120 57 -45 162 4 162 76 0 60 -73
84 -137 44z m85 -2 c34 -34 -5 -128 -53 -128 -45 0 -58 54 -25 108 21 34 55
43 78 20z"/>
<path d="M3316 2400 c15 -15 -11 -119 -34 -137 -13 -11 -11 -13 17 -13 26 0
31 3 23 13 -8 9 -8 25 0 55 12 49 24 47 33 -6 11 -68 19 -68 65 -5 l42 58 -6
-45 c-4 -24 -12 -50 -18 -57 -8 -10 -4 -13 21 -13 19 0 30 4 26 10 -10 17 15
124 33 138 14 10 12 12 -14 11 -23 0 -35 -9 -59 -46 -17 -26 -36 -48 -42 -50
-7 -3 -18 16 -26 44 -12 42 -18 48 -43 51 -22 3 -26 1 -18 -8z"/>
<path d="M2710 2306 c-20 -25 -8 -61 21 -64 32 -4 63 29 54 57 -8 25 -56 29
-75 7z"/>
<path d="M760 2190 c0 -7 478 -10 1415 -10 937 0 1415 3 1415 10 0 7 -478 10
-1415 10 -937 0 -1415 -3 -1415 -10z"/>
<path d="M2786 2104 c-11 -8 -16 -14 -10 -14 13 0 39 18 34 24 -3 2 -14 -2
-24 -10z"/>
<path d="M1027 2066 c-4 -10 -1 -13 8 -9 8 3 12 9 9 14 -7 12 -11 11 -17 -5z"/>
<path d="M1115 2070 c-27 -4 -44 -8 -37 -8 16 -3 16 -114 0 -130 -9 -9 -6 -12
17 -12 23 0 26 3 17 12 -7 7 -12 38 -12 71 l0 59 35 -4 c24 -3 35 0 35 9 0 7
-1 12 -2 11 -2 0 -25 -4 -53 -8z"/>
<path d="M1787 2066 c-4 -10 -1 -13 8 -9 8 3 12 9 9 14 -7 12 -11 11 -17 -5z"/>
<path d="M1875 2070 c-27 -4 -44 -8 -37 -8 16 -3 16 -114 0 -130 -9 -9 -6 -12
17 -12 23 0 26 3 17 12 -7 7 -12 38 -12 71 l0 59 35 -4 c24 -3 35 0 35 9 0 7
-1 12 -2 11 -2 0 -25 -4 -53 -8z"/>
<path d="M2795 2069 c11 -6 26 -19 33 -27 17 -23 15 -82 -5 -104 -16 -18 -16
-18 0 -12 24 9 37 36 37 77 0 37 -20 61 -60 71 -23 6 -23 6 -5 -5z"/>
<path d="M3020 2064 c0 -8 5 -12 10 -9 6 4 8 11 5 16 -9 14 -15 11 -15 -7z"/>
<path d="M3360 2073 c8 -3 23 -12 33 -21 10 -9 17 -11 17 -4 0 13 -32 32 -52
31 -9 0 -8 -2 2 -6z"/>
<path d="M775 1995 c0 -60 3 -75 15 -75 12 0 15 15 15 75 0 60 -3 75 -15 75
-12 0 -15 -15 -15 -75z"/>
<path d="M858 2004 c3 -48 0 -69 -10 -75 -10 -7 -8 -9 7 -9 18 0 20 5 17 44
-7 83 -1 85 53 18 50 -62 70 -77 58 -44 -9 23 -105 131 -118 132 -6 0 -9 -26
-7 -66z"/>
<path d="M966 2062 c7 -4 14 -18 16 -32 3 -23 4 -22 9 8 5 27 3 32 -15 32 -13
0 -17 -3 -10 -8z"/>
<path d="M1208 2004 c3 -48 0 -69 -10 -75 -9 -6 -5 -9 12 -9 24 0 26 3 22 36
-4 35 -3 37 22 32 17 -3 26 -1 26 7 0 8 -9 10 -25 7 -23 -4 -25 -1 -25 32 0
22 -5 36 -12 36 -10 0 -12 -18 -10 -66z"/>
<path d="M1275 2060 c3 -5 8 -10 11 -10 2 0 4 5 4 10 0 6 -5 10 -11 10 -5 0
-7 -4 -4 -10z"/>
<path d="M1340 2033 c3 -21 3 -55 -1 -75 -5 -31 -3 -38 10 -38 13 0 16 7 13
35 -6 46 16 46 46 0 12 -19 29 -35 37 -35 12 0 9 7 -10 27 -27 30 -31 43 -14
60 16 16 7 57 -14 61 -16 3 -17 1 -6 -16 16 -26 5 -52 -22 -52 -18 0 -21 5
-17 35 3 27 0 35 -12 35 -14 0 -16 -7 -10 -37z"/>
<path d="M1546 1995 c37 -41 69 -75 71 -75 2 0 3 12 3 26 0 14 -4 23 -9 20 -5
-4 -31 19 -56 49 -26 30 -54 55 -62 55 -8 0 16 -34 53 -75z"/>
<path d="M1609 2023 c4 -52 7 -49 13 10 2 22 0 37 -7 37 -6 0 -9 -18 -6 -47z"/>
<path d="M1678 2004 c3 -48 0 -69 -10 -75 -9 -6 -5 -9 12 -9 24 0 26 3 22 36
-4 35 -3 37 22 32 17 -3 26 -1 26 7 0 8 -9 10 -25 7 -23 -4 -25 -1 -25 32 0
22 -5 36 -12 36 -10 0 -12 -18 -10 -66z"/>
<path d="M1745 2060 c3 -5 8 -10 11 -10 2 0 4 5 4 10 0 6 -5 10 -11 10 -5 0
-7 -4 -4 -10z"/>
<path d="M2005 1995 c0 -74 0 -75 25 -74 14 0 19 3 13 6 -7 2 -13 18 -13 35 0
28 2 30 30 26 19 -3 30 0 30 7 0 7 -12 10 -31 7 -31 -5 -31 -4 -27 32 3 28 0
36 -12 36 -12 0 -15 -14 -15 -75z"/>
<path d="M2070 2066 c0 -2 7 -7 16 -10 8 -3 12 -2 9 4 -6 10 -25 14 -25 6z"/>
<path d="M2138 2004 c3 -48 0 -69 -10 -75 -9 -6 -6 -9 12 -9 24 0 25 2 25 75
0 60 -3 75 -15 75 -12 0 -14 -12 -12 -66z"/>
<path d="M2218 2004 c3 -48 0 -69 -10 -75 -8 -6 -1 -8 22 -8 19 0 29 3 23 6
-18 7 -17 73 1 73 16 0 46 -26 46 -40 0 -5 -7 -16 -16 -24 -8 -9 -11 -16 -6
-16 12 0 42 34 42 47 0 6 -7 16 -15 23 -11 9 -12 17 -4 32 11 20 -3 48 -23 48
-6 0 -5 -7 2 -15 16 -20 5 -45 -20 -45 -16 0 -20 7 -20 30 0 17 -5 30 -12 30
-10 0 -12 -18 -10 -66z"/>
<path d="M2355 1995 c0 -61 3 -75 15 -75 12 0 15 8 12 35 -2 19 0 35 6 35 5 0
22 -16 36 -35 15 -19 35 -35 44 -34 10 0 12 3 5 5 -7 3 -22 21 -33 40 -13 21
-30 34 -42 34 -17 0 -20 5 -16 35 3 27 0 35 -12 35 -12 0 -15 -14 -15 -75z"/>
<path d="M2420 2055 c6 -8 9 -23 5 -35 -3 -11 -2 -20 4 -20 5 0 13 9 16 20 7
21 -9 50 -27 50 -6 0 -5 -6 2 -15z"/>
<path d="M2557 2056 c-3 -8 -2 -16 2 -18 5 -2 12 -14 16 -27 7 -22 5 -23 -19
-19 -14 3 -26 1 -26 -3 0 -5 14 -9 30 -9 29 0 34 -7 33 -47 -1 -8 11 -13 26
-12 14 0 21 3 15 5 -7 3 -22 33 -35 67 -26 72 -34 84 -42 63z"/>
<path d="M2727 2052 c-37 -40 -9 -132 39 -132 12 0 10 6 -10 21 -20 16 -26 29
-26 59 0 22 7 45 16 54 8 9 11 16 6 16 -5 0 -16 -8 -25 -18z"/>
<path d="M2905 1995 c0 -60 3 -75 15 -75 12 0 14 13 12 75 -2 49 -8 75 -15 75
-8 0 -12 -24 -12 -75z"/>
<path d="M2964 2054 c20 -20 20 -33 -1 -56 -9 -10 -12 -18 -6 -18 5 0 18 9 28
20 15 17 16 24 7 45 -6 14 -19 25 -27 25 -15 0 -15 -1 -1 -16z"/>
<path d="M3068 2061 c10 -6 13 -27 10 -75 -2 -54 0 -66 12 -66 12 0 14 13 12
71 l-4 72 31 -5 c17 -2 31 -1 31 4 0 4 -24 8 -52 8 -33 0 -48 -4 -40 -9z"/>
<path d="M3198 1995 c-3 -74 -3 -75 22 -75 18 0 21 3 12 9 -10 6 -13 27 -10
75 2 46 -1 66 -9 66 -7 0 -13 -26 -15 -75z"/>
<path d="M3290 2048 c-40 -43 -10 -129 46 -127 17 0 17 1 -3 9 -44 18 -57 86
-23 120 11 11 16 20 10 20 -5 0 -18 -10 -30 -22z"/>
<path d="M3497 2050 c-3 -11 -2 -18 3 -15 8 5 20 -17 20 -36 0 -5 -10 -9 -23
-9 -16 0 -27 -10 -39 -35 -14 -32 -14 -35 1 -35 12 0 17 8 16 28 0 22 5 28 27
30 19 2 28 -2 33 -17 3 -12 3 -25 0 -31 -4 -6 5 -10 19 -10 l25 0 -18 33 c-11
17 -25 51 -32 75 -13 46 -24 53 -32 22z"/>
<path d="M1489 1977 c-2 -35 0 -57 6 -57 6 0 9 18 7 43 -5 71 -8 75 -13 14z"/>
<path d="M2520 1961 c0 -5 -7 -17 -16 -25 -14 -15 -14 -16 3 -16 12 0 18 8 19
25 1 14 0 25 -2 25 -2 0 -4 -4 -4 -9z"/>
<path d="M3386 1934 c-17 -12 -17 -14 -4 -14 9 0 20 5 23 11 11 17 2 18 -19 3z"/>
<path d="M1280 1930 c-13 -8 -12 -10 3 -10 9 0 17 5 17 10 0 12 -1 12 -20 0z"/>
<path d="M1750 1930 c-13 -8 -12 -10 3 -10 9 0 17 5 17 10 0 12 -1 12 -20 0z"/>
</g>
</svg>
